<svg xmlns="http://www.w3.org/2000/svg" width="128" height="128" viewBox="0 0 128 128"><g stroke-linecap="round" stroke-linejoin="round"><path d="m37 42-8-23 14-5 12 23m18 0 12-23 14 5-8 23" fill="#edf0e9" stroke="#131820" stroke-width="5"/><path d="M29 81V61c0-25 12-34 35-34s35 9 35 34v20l-10 11H39Z" fill="#edf0e9" stroke="#131820" stroke-width="5"/><rect x="36" y="48" width="56" height="32" rx="13" fill="#131820"/><path d="m45 59 12 4m14 0 12-4" stroke="#edf0e9" stroke-width="5"/><path d="M40 86h48l5 24H35Z" fill="#edf0e9" stroke="#131820" stroke-width="5"/><path d="M44 99h40M44 110v7m40-7v7" stroke="#131820" stroke-width="6"/><path d="m28 86-8 16m80-16 8 16" stroke="#edf0e9" stroke-width="9"/></g></svg>
