<svg xmlns="http://www.w3.org/2000/svg" width="128" height="128" viewBox="0 0 128 128"><g stroke-linecap="round" stroke-linejoin="round"><rect x="10" y="12" width="108" height="104" rx="10" fill="#a96e7c" stroke="#553f50" stroke-width="5"/><path d="M15 37h98M13 63h102M13 89h102M41 15v21m45-21v21M64 39v23M39 65v23m49-23v23M63 91v21" fill="none" stroke="#593f50" stroke-width="5"/><path d="M19 20h16m13 0h31m15 0h13M20 44h36m15 0h35M20 70h11m16 0h33m16 0h11M20 96h35m16 0h36" stroke="#d5a2ae" stroke-width="4"/><path d="M18 112h92" stroke="#775060" stroke-width="4"/></g></svg>
